# xmcd
#
# Track frame offsets:
#	150
#	20308
#	46625
#	64539
#	85649
#	103438
#	128271
#	151167
#	172573
#	193283
#	207446
#	232281
#	245090
#	260247
#	280701
#	297914
#	312119
#
# Disc length: 4441 seconds
#
# Revision: 1
# Processed by: cddbd v1.4PL0 Copyright (c) Steve Scherf et al.
# Submitted via: CDmax 1.9
#
DISCID=e8115711
DTITLE=Boyz II Men - Hits
DYEAR=1997
DGENRE=R and B
TTITLE0=4 seasons of loneliness
TTITLE1=End of the road
TTITLE2=I'll make love to you
TTITLE3=One sweet day
TTITLE4=Motownphilly
TTITLE5=On bended knee
TTITLE6=A song for mama
TTITLE7=Hey lover
TTITLE8=Thank you
TTITLE9=It's hard to say goodbye to yesterday
TTITLE10=Dooin' just fine
TTITLE11=In the still of the night
TTITLE12=Water runs dry
TTITLE13=Can't let her go
TTITLE14=Uhh ahh
TTITLE15=Yesterday
TTITLE16=Brokenhearted
EXTD=
EXTT0=
EXTT1=
EXTT2=
EXTT3=
EXTT4=
EXTT5=
EXTT6=
EXTT7=
EXTT8=
EXTT9=
EXTT10=
EXTT11=
EXTT12=
EXTT13=
EXTT14=
EXTT15=
EXTT16=
PLAYORDER=
